<?xml version="1.0" encoding="iso-8859-1"?>
<!-- Generator: Adobe Illustrator 19.0.0, SVG Export Plug-In . SVG Version: 6.00 Build 0)  -->
<svg version="1.1" id="Capa_1" xmlns="http://www.w3.org/2000/svg" xmlns:xlink="http://www.w3.org/1999/xlink" x="0px" y="0px"
	 viewBox="0 0 480 480" style="enable-background:new 0 0 480 480;" xml:space="preserve">
<g>
	<g>
		<path d="M88,288c-22.056,0-40,17.944-40,40c0,22.056,17.944,40,40,40c22.056,0,40-17.944,40-40C128,305.944,110.056,288,88,288z
			 M88,352c-13.232,0-24-10.768-24-24s10.768-24,24-24s24,10.768,24,24S101.232,352,88,352z"/>
	</g>
</g>
<g>
	<g>
		<path d="M240,32c-22.056,0-40,17.944-40,40c0,22.056,17.944,40,40,40c22.056,0,40-17.944,40-40C280,49.944,262.056,32,240,32z
			 M240,96c-13.232,0-24-10.768-24-24s10.768-24,24-24s24,10.768,24,24S253.232,96,240,96z"/>
	</g>
</g>
<g>
	<g>
		<path d="M384,200c-13.232,0-24,10.768-24,24s10.768,24,24,24s24-10.768,24-24S397.232,200,384,200z M384,232c-4.408,0-8-3.592-8-8
			s3.592-8,8-8c4.408,0,8,3.592,8,8S388.408,232,384,232z"/>
	</g>
</g>
<g>
	<g>
		<path d="M476.704,321.528l-66.264-48.192C428.024,263.88,440,245.32,440,224c0-26.336-18.296-48.424-42.832-54.376l-86.28-109.8
			C305.072,25.912,275.544,0,240,0c-35.608,0-65.184,26.008-70.92,60.008L169.072,60L49.496,267.264C29.4,280.056,16,302.464,16,328
			c0,17.088,6.016,32.792,16,45.152v43.656C13.768,420.528,0,436.688,0,456v16c0,4.416,3.584,8,8,8h160c4.416,0,8-3.584,8-8v-16
			c0-19.312-13.768-35.472-32-39.192v-43.656c9.984-12.36,16-28.064,16-45.152c0-1.888-0.144-3.736-0.28-5.592l85.456-178.672
			c2.152-0.152,4.272-0.408,6.368-0.752l76.624,84.288c1.16,19.928,12.728,37.096,29.392,46.064l-66.264,48.192
			C289.224,323.032,288,325.44,288,328v88c0,2.432,1.104,4.728,3,6.248l37,29.592V472c0,4.416,3.584,8,8,8h96c4.416,0,8-3.584,8-8
			v-20.16l37-29.6c1.896-1.512,3-3.808,3-6.24v-88C480,325.44,478.776,323.032,476.704,321.528z M160,456v8H16v-8
			c0-13.232,10.768-24,24-24h96C149.232,432,160,442.768,160,456z M48,416v-28.176C59.448,395.504,73.208,400,88,400
			s28.552-4.496,40-12.176V416H48z M88,384c-30.88,0-56-25.12-56-56s25.12-56,56-56s56,25.12,56,56S118.88,384,88,384z
			 M153.504,298.296C142.168,273.392,117.104,256,88,256c-4.92,0-9.72,0.504-14.368,1.448L170.328,89.84
			c6.984,27.232,29.48,48.248,57.504,53.048L153.504,298.296z M240,128c-30.88,0-56-25.12-56-56s25.12-56,56-56s56,25.12,56,56
			S270.88,128,240,128z M330.856,206.448l-62.208-68.432c21.504-9.368,37.552-28.928,42.04-52.552l65.352,83.168
			C354.832,171.672,337.432,186.592,330.856,206.448z M344,224c0-22.056,17.944-40,40-40c22.056,0,40,17.944,40,40
			c0,20.408-15.424,37.104-35.2,39.512c-3.2,0.384-6.408,0.384-9.608,0C359.424,261.104,344,244.408,344,224z M424,448v16h-80v-16
			v-64h80V448z M424,368h-80v-19.72l40-26.664l40,26.664V368z M464,412.16l-24,19.2V376v-32c0-2.672-1.336-5.168-3.56-6.656l-48-32
			c-1.344-0.896-2.896-1.344-4.44-1.344s-3.096,0.448-4.44,1.344l-48,32c-2.224,1.488-3.56,3.984-3.56,6.656v32v55.352l-24-19.2
			v-80.08l72.328-52.6c0.256,0.032,0.52,0.024,0.776,0.056c2.264,0.28,4.552,0.472,6.896,0.472s4.632-0.192,6.904-0.472
			c0.256-0.032,0.52-0.016,0.776-0.056l72.32,52.6V412.16z"/>
	</g>
</g>
<g>
	<g>
		<rect x="360" y="400" width="16" height="16"/>
	</g>
</g>
<g>
	<g>
		<rect x="392" y="400" width="16" height="16"/>
	</g>
</g>
<g>
	<g>
		<rect x="360" y="432" width="16" height="16"/>
	</g>
</g>
<g>
	<g>
		<rect x="392" y="432" width="16" height="16"/>
	</g>
</g>
<g>
</g>
<g>
</g>
<g>
</g>
<g>
</g>
<g>
</g>
<g>
</g>
<g>
</g>
<g>
</g>
<g>
</g>
<g>
</g>
<g>
</g>
<g>
</g>
<g>
</g>
<g>
</g>
<g>
</g>
</svg>
