<svg xmlns="http://www.w3.org/2000/svg" style="display: none;"><symbol id="curly-brackets" viewBox="0 0 16 16"><title>curly-brackets</title><path fill="#444444" d="M2.1 3.1c0.2 1.3 0.4 1.6 0.4 2.9 0 0.8-1.5 1.5-1.5 1.5v1c0 0 1.5 0.7 1.5 1.5 0 1.3-0.2 1.6-0.4 2.9-0.3 2.1 0.8 3.1 1.8 3.1s2.1 0 2.1 0v-2c0 0-1.8 0.2-1.8-1 0-0.9 0.2-0.9 0.4-2.9 0.1-0.9-0.5-1.6-1.1-2.1 0.6-0.5 1.2-1.1 1.1-2-0.3-2-0.4-2-0.4-2.9 0-1.2 1.8-1.1 1.8-1.1v-2c0 0-1 0-2.1 0s-2.1 1-1.8 3.1z"/><path fill="#444444" d="M13.9 3.1c-0.2 1.3-0.4 1.6-0.4 2.9 0 0.8 1.5 1.5 1.5 1.5v1c0 0-1.5 0.7-1.5 1.5 0 1.3 0.2 1.6 0.4 2.9 0.3 2.1-0.8 3.1-1.8 3.1s-2.1 0-2.1 0v-2c0 0 1.8 0.2 1.8-1 0-0.9-0.2-0.9-0.4-2.9-0.1-0.9 0.5-1.6 1.1-2.1-0.6-0.5-1.2-1.1-1.1-2 0.2-2 0.4-2 0.4-2.9 0-1.2-1.8-1.1-1.8-1.1v-2c0 0 1 0 2.1 0s2.1 1 1.8 3.1z"/></symbol><symbol id="browser" viewBox="0 0 392.598 392.598"><title>browser</title><path style="fill:#FFC10D;" d="M370.78,32.711c0-6.012-4.848-10.925-10.925-10.925H32.743c-6.012,0-10.925,4.848-10.925,10.925 v51.911H370.78L370.78,32.711L370.78,32.711z"/><path style="fill:#FFFFFF;" d="M21.818,359.822c0,6.012,4.848,10.925,10.925,10.925h327.111c6.012,0,10.925-4.848,10.925-10.925 V106.408H21.818V359.822z"/><path style="fill:#56ACE0;" d="M43.604,128.259v14.222h43.184c6.012,0,10.925,4.848,10.925,10.925s-4.848,10.925-10.925,10.925 H43.604v29.608h17.455c6.012,0,10.925,4.848,10.925,10.925c0,6.077-4.913,10.796-10.925,10.796H43.604v133.301h305.325V128.259 H43.604z"/><g> <path style="fill:#194F82;" d="M359.855,0H32.743C14.707,0,0.032,14.675,0.032,32.711v327.111 c0,18.101,14.675,32.776,32.711,32.776h327.111c18.036,0,32.711-14.675,32.711-32.711V32.711C392.566,14.675,377.891,0,359.855,0z M21.818,32.711c0-6.012,4.848-10.925,10.925-10.925h327.111c6.012,0,10.925,4.848,10.925,10.925v51.911H21.818V32.711z M370.78,359.822L370.78,359.822c0,6.012-4.848,10.925-10.925,10.925H32.743c-6.012,0-10.925-4.848-10.925-10.925V106.408H370.78 L370.78,359.822L370.78,359.822z"/> <path style="fill:#194F82;" d="M342.141,41.891h-20.945c-6.012,0-10.925,4.848-10.925,10.925c0,6.012,4.848,10.925,10.925,10.925 h20.945c6.012,0,10.925-4.848,10.925-10.925S348.154,41.891,342.141,41.891z"/> <path style="fill:#194F82;" d="M265.665,41.891h-20.945c-6.012,0-10.925,4.848-10.925,10.925c0,6.012,4.848,10.925,10.925,10.925 h20.945c6.012,0,10.925-4.848,10.925-10.925S271.741,41.891,265.665,41.891z"/> <path style="fill:#194F82;" d="M133.139,304.808c6.594,5.947,13.317,2.133,15.451,0c4.267-4.267,4.267-11.119,0-15.451 l-34.844-34.844l34.844-34.844c4.267-4.267,4.267-11.119,0-15.451c-4.267-4.267-11.119-4.267-15.451,0L90.537,246.82 c-2.004,2.004-3.168,4.784-3.168,7.758c0,2.844,1.164,5.624,3.168,7.758L133.139,304.808z"/> <path style="fill:#194F82;" d="M244.008,304.808c2.133,2.133,8.792,6.077,15.451,0l42.602-42.602 c2.004-2.004,3.168-4.784,3.168-7.758c0-2.844-1.164-5.624-3.168-7.758l-42.602-42.602c-4.267-4.267-11.119-4.267-15.451,0 c-4.267,4.267-4.267,11.119,0,15.451l34.844,34.844l-34.844,34.974C239.741,293.624,239.741,300.477,244.008,304.808z"/> <path style="fill:#194F82;" d="M169.923,333.188c6.659,2.392,12.283-2.263,13.834-6.788l46.804-135.952 c1.939-5.689-1.099-11.895-6.788-13.834c-5.689-1.939-11.895,1.099-13.834,6.788L163.2,319.354 C161.196,325.107,164.299,331.184,169.923,333.188z"/> </g></symbol><symbol id="coding" viewBox="0 0 512 512"><title>coding</title><path style="fill:#E7ECED;" d="M435.2,17.067H76.8H34.142c-14.14,0-25.609,11.469-25.609,25.609v298.658H76.8h128h102.4h128h68.267 V42.675c0-14.14-11.469-25.609-25.609-25.609H435.2z"/><path style="fill:#AFB6BB;" d="M477.858,392.533H34.142c-14.14,0-25.609-11.469-25.609-25.609v-42.658h494.933v42.658 C503.467,381.065,491.998,392.533,477.858,392.533z"/><rect x="42.667" y="51.2" style="fill:#EBBA16;" width="426.667" height="273.067"/><path style="fill:#AFB6BB;" d="M366.933,494.933H145.067c-9.429,0-17.067-7.637-17.067-17.067l0,0 c0-9.429,7.637-17.067,17.067-17.067h221.867c9.429,0,17.067,7.637,17.067,17.067l0,0C384,487.296,376.363,494.933,366.933,494.933z "/><path style="fill:#6C797A;" d="M298.667,392.533h-85.333c0,37.734-13.466,68.267-51.2,68.267h187.733 C312.132,460.8,298.667,430.268,298.667,392.533z"/><circle style="fill:#FFFFFF;" cx="256" cy="187.733" r="102.4"/><g> <path style="fill:#4D007E;" d="M503.467,332.8H8.533c-4.71,0-8.533-3.823-8.533-8.533V42.675C0,23.851,15.317,8.533,34.142,8.533 h443.716C496.683,8.533,512,23.851,512,42.675v281.591C512,328.977,508.177,332.8,503.467,332.8z M17.067,315.733h477.867V42.675 c0-9.421-7.663-17.075-17.075-17.075H34.142c-9.412,0-17.075,7.654-17.075,17.075V315.733z"/> <path style="fill:#4D007E;" d="M477.858,401.067H34.142C15.317,401.067,0,385.749,0,366.925v-42.658 c0-4.71,3.823-8.533,8.533-8.533h494.933c4.71,0,8.533,3.823,8.533,8.533v42.658C512,385.749,496.683,401.067,477.858,401.067z M17.067,332.8v34.125c0,9.421,7.663,17.075,17.075,17.075h443.716c9.412,0,17.075-7.654,17.075-17.075V332.8H17.067z"/> <path style="fill:#4D007E;" d="M281.6,366.933h-51.2c-4.71,0-8.533-3.823-8.533-8.533s3.823-8.533,8.533-8.533h51.2 c4.71,0,8.533,3.823,8.533,8.533S286.31,366.933,281.6,366.933z"/> <path style="fill:#4D007E;" d="M469.333,332.8H42.667c-4.71,0-8.533-3.823-8.533-8.533V51.2c0-4.71,3.823-8.533,8.533-8.533 h426.667c4.71,0,8.533,3.823,8.533,8.533v273.067C477.867,328.977,474.044,332.8,469.333,332.8z M51.2,315.733h409.6v-256H51.2 V315.733z"/> <path style="fill:#4D007E;" d="M366.933,503.467H145.067c-14.114,0-25.6-11.486-25.6-25.6s11.486-25.6,25.6-25.6h221.867 c14.114,0,25.6,11.486,25.6,25.6S381.047,503.467,366.933,503.467z M145.067,469.333c-4.71,0-8.533,3.831-8.533,8.533 c0,4.702,3.823,8.533,8.533,8.533h221.867c4.71,0,8.533-3.831,8.533-8.533c0-4.702-3.823-8.533-8.533-8.533H145.067z"/> <path style="fill:#4D007E;" d="M349.867,469.333H162.133c-4.71,0-8.533-3.823-8.533-8.533s3.823-8.533,8.533-8.533 c28.314,0,42.667-20.096,42.667-59.733c0-4.71,3.823-8.533,8.533-8.533h85.333c4.71,0,8.533,3.823,8.533,8.533 c0,39.637,14.353,59.733,42.667,59.733c4.71,0,8.533,3.823,8.533,8.533S354.577,469.333,349.867,469.333z M203.699,452.267h104.61 c-10.513-11.639-16.7-28.971-17.937-51.2h-68.736C220.39,423.296,214.204,440.627,203.699,452.267z"/> <path style="fill:#4D007E;" d="M256,298.667c-61.167,0-110.933-49.766-110.933-110.933S194.833,76.8,256,76.8 s110.933,49.766,110.933,110.933S317.167,298.667,256,298.667z M256,93.867c-51.755,0-93.867,42.112-93.867,93.867 S204.245,281.6,256,281.6s93.867-42.112,93.867-93.867S307.755,93.867,256,93.867z"/> <path style="fill:#4D007E;" d="M213.333,221.867c-2.185,0-4.369-0.836-6.033-2.5l-25.6-25.6c-3.337-3.337-3.337-8.73,0-12.066 l25.6-25.6c3.328-3.337,8.738-3.337,12.066,0c3.337,3.337,3.337,8.73,0,12.066l-19.567,19.567l19.567,19.567 c3.337,3.337,3.337,8.73,0,12.066C217.702,221.03,215.518,221.867,213.333,221.867z"/> <path style="fill:#4D007E;" d="M298.667,221.867c-2.185,0-4.369-0.836-6.033-2.5c-3.337-3.337-3.337-8.73,0-12.066l19.567-19.567 l-19.567-19.567c-3.337-3.337-3.337-8.73,0-12.066c3.328-3.337,8.738-3.337,12.066,0l25.6,25.6c3.337,3.337,3.337,8.73,0,12.066 l-25.6,25.6C303.036,221.03,300.851,221.867,298.667,221.867z"/> <path style="fill:#4D007E;" d="M238.933,247.467c-0.896,0-1.809-0.145-2.697-0.444c-4.471-1.493-6.886-6.323-5.402-10.795 l34.133-102.4c1.493-4.463,6.349-6.878,10.795-5.393c4.471,1.493,6.886,6.323,5.402,10.795l-34.133,102.4 C245.837,245.205,242.509,247.467,238.933,247.467z"/> <path style="fill:#4D007E;" d="M76.8,128c-4.71,0-8.533-3.823-8.533-8.533V85.333c0-4.71,3.823-8.533,8.533-8.533h34.133 c4.71,0,8.533,3.823,8.533,8.533c0,4.71-3.823,8.533-8.533,8.533h-25.6v25.6C85.333,124.177,81.51,128,76.8,128z"/> <path style="fill:#4D007E;" d="M435.2,298.667h-34.133c-4.71,0-8.533-3.823-8.533-8.533c0-4.71,3.823-8.533,8.533-8.533h25.6V256 c0-4.71,3.823-8.533,8.533-8.533s8.533,3.823,8.533,8.533v34.133C443.733,294.844,439.91,298.667,435.2,298.667z"/> </g></symbol><symbol id="code-signs" viewBox="0 0 611.997 611.997"><title>code-signs</title><path d="M157.113,397.291L51.241,311.692l105.872-85.599c8.035-7.832,8.035-20.538,0-28.37c-8.036-7.832-21.048-7.832-29.084,0 L5.841,296.498c-4.283,4.181-6.098,9.729-5.812,15.195c-0.286,5.466,1.529,11.013,5.812,15.194l122.188,98.774 c8.036,7.831,21.048,7.831,29.084,0C165.148,417.829,165.148,405.123,157.113,397.291z M447.929,43.434 c-9.749-5.527-22.23-2.244-27.859,7.322l-254.941,491.26c-5.629,9.565-3.304,24.188,7.465,27.31 c13.176,3.813,22.231,2.243,27.86-7.322l254.94-491.26C461.043,61.157,457.698,48.94,447.929,43.434z M606.135,296.498 l-122.167-98.794c-8.036-7.832-21.048-7.832-29.084,0c-8.036,7.832-8.036,20.538,0,28.37l105.872,85.599l-105.872,85.599 c-8.036,7.832-8.036,20.538,0,28.37c8.035,7.831,21.048,7.831,29.084,0l122.188-98.774c4.283-4.181,6.099-9.729,5.812-15.194 C612.254,306.226,610.418,300.679,606.135,296.498z"/></symbol><symbol id="file" viewBox="0 0 450 450"><title>file</title><path d="M281.213,0H60v450h330V108.787L281.213,0z M290,51.213L332.787,94H290V51.213z M90,420V30h170v94h100v296H90z"/><polygon points="194.394,194.394 113.787,275 194.394,355.606 215.606,334.394 156.213,275 215.606,215.606 "/><polygon points="234.394,215.606 293.787,275 234.394,334.394 255.606,355.606 336.213,275 255.606,194.394 "/></symbol><symbol id="industrial-robot" viewBox="0 0 480 480"><title>industrial-robot</title><g> <g> <path d="M88,288c-22.056,0-40,17.944-40,40c0,22.056,17.944,40,40,40c22.056,0,40-17.944,40-40C128,305.944,110.056,288,88,288z M88,352c-13.232,0-24-10.768-24-24s10.768-24,24-24s24,10.768,24,24S101.232,352,88,352z"/> </g> </g><g> <g> <path d="M240,32c-22.056,0-40,17.944-40,40c0,22.056,17.944,40,40,40c22.056,0,40-17.944,40-40C280,49.944,262.056,32,240,32z M240,96c-13.232,0-24-10.768-24-24s10.768-24,24-24s24,10.768,24,24S253.232,96,240,96z"/> </g> </g><g> <g> <path d="M384,200c-13.232,0-24,10.768-24,24s10.768,24,24,24s24-10.768,24-24S397.232,200,384,200z M384,232c-4.408,0-8-3.592-8-8 s3.592-8,8-8c4.408,0,8,3.592,8,8S388.408,232,384,232z"/> </g> </g><g> <g> <path d="M476.704,321.528l-66.264-48.192C428.024,263.88,440,245.32,440,224c0-26.336-18.296-48.424-42.832-54.376l-86.28-109.8 C305.072,25.912,275.544,0,240,0c-35.608,0-65.184,26.008-70.92,60.008L169.072,60L49.496,267.264C29.4,280.056,16,302.464,16,328 c0,17.088,6.016,32.792,16,45.152v43.656C13.768,420.528,0,436.688,0,456v16c0,4.416,3.584,8,8,8h160c4.416,0,8-3.584,8-8v-16 c0-19.312-13.768-35.472-32-39.192v-43.656c9.984-12.36,16-28.064,16-45.152c0-1.888-0.144-3.736-0.28-5.592l85.456-178.672 c2.152-0.152,4.272-0.408,6.368-0.752l76.624,84.288c1.16,19.928,12.728,37.096,29.392,46.064l-66.264,48.192 C289.224,323.032,288,325.44,288,328v88c0,2.432,1.104,4.728,3,6.248l37,29.592V472c0,4.416,3.584,8,8,8h96c4.416,0,8-3.584,8-8 v-20.16l37-29.6c1.896-1.512,3-3.808,3-6.24v-88C480,325.44,478.776,323.032,476.704,321.528z M160,456v8H16v-8 c0-13.232,10.768-24,24-24h96C149.232,432,160,442.768,160,456z M48,416v-28.176C59.448,395.504,73.208,400,88,400 s28.552-4.496,40-12.176V416H48z M88,384c-30.88,0-56-25.12-56-56s25.12-56,56-56s56,25.12,56,56S118.88,384,88,384z M153.504,298.296C142.168,273.392,117.104,256,88,256c-4.92,0-9.72,0.504-14.368,1.448L170.328,89.84 c6.984,27.232,29.48,48.248,57.504,53.048L153.504,298.296z M240,128c-30.88,0-56-25.12-56-56s25.12-56,56-56s56,25.12,56,56 S270.88,128,240,128z M330.856,206.448l-62.208-68.432c21.504-9.368,37.552-28.928,42.04-52.552l65.352,83.168 C354.832,171.672,337.432,186.592,330.856,206.448z M344,224c0-22.056,17.944-40,40-40c22.056,0,40,17.944,40,40 c0,20.408-15.424,37.104-35.2,39.512c-3.2,0.384-6.408,0.384-9.608,0C359.424,261.104,344,244.408,344,224z M424,448v16h-80v-16 v-64h80V448z M424,368h-80v-19.72l40-26.664l40,26.664V368z M464,412.16l-24,19.2V376v-32c0-2.672-1.336-5.168-3.56-6.656l-48-32 c-1.344-0.896-2.896-1.344-4.44-1.344s-3.096,0.448-4.44,1.344l-48,32c-2.224,1.488-3.56,3.984-3.56,6.656v32v55.352l-24-19.2 v-80.08l72.328-52.6c0.256,0.032,0.52,0.024,0.776,0.056c2.264,0.28,4.552,0.472,6.896,0.472s4.632-0.192,6.904-0.472 c0.256-0.032,0.52-0.016,0.776-0.056l72.32,52.6V412.16z"/> </g> </g><g> <g> <rect x="360" y="400" width="16" height="16"/> </g> </g><g> <g> <rect x="392" y="400" width="16" height="16"/> </g> </g><g> <g> <rect x="360" y="432" width="16" height="16"/> </g> </g><g> <g> <rect x="392" y="432" width="16" height="16"/> </g> </g></symbol><symbol id="robot" viewBox="0 0 512 512"><title>robot</title><g transform="translate(1 1)"> <polygon style="fill:#F57C00;" points="391.533,434.2 391.533,502.467 118.467,502.467 118.467,434.2 169.667,383 340.333,383 "/> <polygon style="fill:#FF9801;" points="365.934,434.2 365.934,502.467 118.467,502.467 118.467,434.2 169.667,383 314.733,383 "/> <polyline style="fill:#3F51B5;" points="255,502.467 118.467,502.467 118.467,468.333 255,468.333 "/> <rect x="280.6" y="468.333" style="fill:#283593;" width="110.933" height="34.133"/> <rect x="280.6" y="468.333" style="fill:#3F51B5;" width="85.333" height="34.133"/> <g> <rect x="229.4" y="468.333" style="fill:#CFD8DC;" width="51.2" height="34.133"/> <path style="fill:#CFD8DC;" d="M383,229.4l34.133,59.733l34.133,17.067v42.667h51.2v-49.152 c-0.003-6.476-3.672-12.393-9.472-15.275L383,229.4z"/> <path style="fill:#CFD8DC;" d="M127,229.4l-34.133,59.733L58.733,306.2v34.133h-51.2v-40.619 c0.003-6.476,3.672-12.393,9.472-15.275L127,229.4z"/> <rect x="203.8" y="263.533" style="fill:#CFD8DC;" width="102.4" height="153.6"/> <rect x="220.867" y="92.867" style="fill:#CFD8DC;" width="68.267" height="136.533"/> </g> <path style="fill:#3F51B5;" d="M383,33.133H127c-9.426,0-17.067,7.641-17.067,17.067v17.067c0,9.426,7.641,17.067,17.067,17.067 h256c9.426,0,17.067-7.641,17.067-17.067V50.2C400.067,40.774,392.426,33.133,383,33.133z"/> <g> <path style="fill:#F57C00;" d="M417.133,263.533l0,25.6H92.867l0-25.6c-0.015-5.82,0.996-11.597,2.987-17.067 c7.185-20.467,26.522-34.157,48.213-34.133h221.867c21.692-0.024,41.029,13.666,48.213,34.133 C416.138,251.936,417.149,257.713,417.133,263.533z"/> <path style="fill:#F57C00;" d="M161.133,7.533h187.733c9.426,0,17.067,7.641,17.067,17.067v68.267 c0,9.426-7.641,17.067-17.067,17.067H161.133c-9.426,0-17.067-7.641-17.067-17.067V24.6 C144.067,15.174,151.708,7.533,161.133,7.533z"/> </g> <g> <path style="fill:#FF9801;" d="M391.533,263.533l0,25.6H92.867l0-25.6c-0.015-5.82,0.996-11.597,2.987-17.067 c7.185-20.467,26.522-34.157,48.213-34.133h196.267c21.692-0.024,41.029,13.666,48.213,34.133 C390.538,251.936,391.549,257.713,391.533,263.533z"/> <path style="fill:#FF9801;" d="M161.133,7.533h162.133c9.426,0,17.067,7.641,17.067,17.067v68.267 c0,9.426-7.641,17.067-17.067,17.067H161.133c-9.426,0-17.067-7.641-17.067-17.067V24.6 C144.067,15.174,151.708,7.533,161.133,7.533z"/> </g> <g> <path style="fill:#3F51B5;" d="M220.867,212.333h68.267v25.6c0,9.426-7.641,17.067-17.067,17.067h-34.133 c-9.426,0-17.067-7.641-17.067-17.067V212.333z"/> <path style="fill:#3F51B5;" d="M169.667,246.467v42.667h-76.8l0-25.6c-0.015-5.82,0.996-11.597,2.987-17.067H169.667z"/> </g> <path style="fill:#283593;" d="M417.133,263.533l0,25.6h-25.6v-25.6c0.015-5.82-0.996-11.597-2.987-17.067h25.6 C416.138,251.936,417.149,257.713,417.133,263.533z"/> <path style="fill:#3F51B5;" d="M391.533,263.533l0,25.6h-51.2v-42.667h48.213C390.538,251.936,391.549,257.713,391.533,263.533z"/> <g> <circle style="fill:#00BCD4;" cx="203.8" cy="58.733" r="25.6"/> <circle style="fill:#00BCD4;" cx="297.667" cy="58.733" r="25.6"/> </g> <g> <path style="fill:#3F51B5;" d="M101.4,348.867c-0.028,9.414-7.653,17.039-17.067,17.067H24.6 c-9.414-0.028-17.039-7.652-17.067-17.067V331.8h76.8C93.731,331.868,101.332,339.469,101.4,348.867z"/> <path style="fill:#3F51B5;" d="M408.6,348.867c0.028,9.414,7.652,17.039,17.067,17.067H485.4 c9.414-0.028,17.039-7.652,17.067-17.067V331.8h-76.8C416.269,331.868,408.668,339.469,408.6,348.867z"/> </g> </g><g> <path d="M238.933,59.733c0-18.851-15.282-34.133-34.133-34.133s-34.133,15.282-34.133,34.133s15.282,34.133,34.133,34.133 C223.643,93.845,238.912,78.576,238.933,59.733z M204.8,76.8c-9.426,0-17.067-7.641-17.067-17.067s7.641-17.067,17.067-17.067 c9.426,0,17.067,7.641,17.067,17.067C221.857,69.155,214.222,76.791,204.8,76.8z"/> <path d="M298.667,93.867c18.851,0,34.133-15.282,34.133-34.133S317.518,25.6,298.667,25.6c-18.851,0-34.133,15.282-34.133,34.133 C264.555,78.576,279.824,93.845,298.667,93.867z M298.667,42.667c9.426,0,17.067,7.641,17.067,17.067S308.092,76.8,298.667,76.8 c-9.426,0-17.067-7.641-17.067-17.067C281.61,50.312,289.245,42.676,298.667,42.667z"/> <path d="M497.85,277.783l-75.9-37.95c-0.262-0.086-0.529-0.158-0.799-0.216c-9.733-21.189-30.901-34.782-54.218-34.817h-68.267 v-85.333h51.2c14.132-0.015,25.585-11.468,25.6-25.6H384c14.132-0.015,25.585-11.468,25.6-25.6V51.2 c-0.015-14.132-11.468-25.585-25.6-25.6h-8.533c-0.015-14.132-11.468-25.585-25.6-25.6H162.133 c-14.132,0.015-25.585,11.468-25.6,25.6H128c-14.132,0.015-25.585,11.468-25.6,25.6v17.067c0.015,14.132,11.468,25.585,25.6,25.6 h8.533c0.015,14.132,11.468,25.585,25.6,25.6h51.2V204.8h-68.267c-23.317,0.035-44.485,13.628-54.218,34.817 c-0.27,0.058-0.537,0.13-0.799,0.216l-75.9,37.95C5.456,282.095-0.032,290.975,0,300.679v49.188 c0.015,14.132,11.468,25.585,25.6,25.6h59.733c14.138,0,25.6-11.462,25.6-25.6s-11.462-25.6-25.6-25.6H68.267v-11.792 l27.617-13.808h100.383v76.8h-25.6c-2.263,0.001-4.433,0.9-6.033,2.5l-51.2,51.2c-1.6,1.6-2.5,3.77-2.5,6.033v68.267 c0,4.713,3.821,8.533,8.533,8.533h273.067c4.713,0,8.533-3.821,8.533-8.533V435.2c-0.001-2.263-0.9-4.433-2.5-6.033l-51.2-51.2 c-1.6-1.6-3.77-2.5-6.033-2.5h-25.6v-76.8h100.383l27.617,13.808v11.792h-17.067c-14.138,0-25.6,11.462-25.6,25.6 s11.462,25.6,25.6,25.6H486.4c14.132-0.015,25.585-11.468,25.6-25.6v-49.188C512.031,290.975,506.544,282.096,497.85,277.783z M230.4,221.867h51.2v17.067c-0.006,4.71-3.823,8.527-8.533,8.533h-34.133c-4.71-0.006-8.527-3.823-8.533-8.533V221.867z M384,42.667c4.71,0.006,8.527,3.823,8.533,8.533v17.067c-0.006,4.71-3.823,8.527-8.533,8.533h-8.533V42.667H384z M128,76.8 c-4.71-0.006-8.527-3.823-8.533-8.533V51.2c0.006-4.71,3.823-8.527,8.533-8.533h8.533V76.8H128z M153.6,93.867V25.6 c0.006-4.71,3.823-8.527,8.533-8.533h187.733c4.71,0.006,8.527,3.823,8.533,8.533v68.267c-0.006,4.71-3.823,8.527-8.533,8.533 H162.133C157.423,102.394,153.606,98.577,153.6,93.867z M281.6,119.467v17.067c-4.713,0-8.533,3.821-8.533,8.533 c0,4.713,3.821,8.533,8.533,8.533v17.067c-4.713,0-8.533,3.821-8.533,8.533c0,4.713,3.821,8.533,8.533,8.533V204.8h-51.2v-17.067 c4.713,0,8.533-3.821,8.533-8.533c0-4.713-3.821-8.533-8.533-8.533V153.6c4.713,0,8.533-3.821,8.533-8.533 c0-4.713-3.821-8.533-8.533-8.533v-17.067H281.6z M145.067,221.867h68.267v17.067c0.015,14.132,11.468,25.585,25.6,25.6h34.133 c14.132-0.015,25.585-11.468,25.6-25.6v-17.067h68.267c13.36,0.04,25.922,6.362,33.915,17.067h-59.515 c-4.713,0-8.533,3.821-8.533,8.533V281.6H179.2v-34.133c0-4.713-3.821-8.533-8.533-8.533h-59.515 C119.145,228.229,131.707,221.907,145.067,221.867z M85.333,341.333c4.713,0,8.533,3.82,8.533,8.533s-3.821,8.533-8.533,8.533 H25.6c-4.71-0.006-8.527-3.823-8.533-8.533v-8.533H85.333z M55.917,299.567c-2.891,1.446-4.717,4.401-4.717,7.633v17.067H17.067 l0-23.587c-0.01-3.234,1.819-6.192,4.717-7.629l63.719-31.86c-0.062,1.113-0.169,2.215-0.169,3.343v20.325L55.917,299.567z M102.4,264.533c0-2.866,0.289-5.725,0.862-8.533h58.871v25.6H102.4V264.533z M128,477.867h93.867v17.067H128V477.867z M256,494.934h-17.067v-17.067h34.133v17.067H256z M384,494.934h-93.867v-17.067H384V494.934z M384,438.733V460.8H128v-22.067 l46.2-46.2h22.067v25.6c0,4.713,3.821,8.533,8.533,8.533h102.4c4.713,0,8.533-3.82,8.533-8.533v-25.6H337.8L384,438.733z M298.667,307.2H281.6c-4.713,0-8.533,3.821-8.533,8.533s3.821,8.533,8.533,8.533h17.067v17.067H281.6 c-4.713,0-8.533,3.82-8.533,8.533s3.821,8.533,8.533,8.533h17.067v17.067H281.6c-4.713,0-8.533,3.82-8.533,8.533 s3.821,8.533,8.533,8.533h17.067V409.6h-85.333v-17.067H230.4c4.713,0,8.533-3.82,8.533-8.533s-3.821-8.533-8.533-8.533h-17.067 V358.4H230.4c4.713,0,8.533-3.82,8.533-8.533s-3.821-8.533-8.533-8.533h-17.067v-17.067H230.4c4.713,0,8.533-3.82,8.533-8.533 s-3.821-8.533-8.533-8.533h-17.067v-8.533h85.333V307.2z M409.6,281.6h-59.733V256h58.871c0.573,2.808,0.862,5.667,0.862,8.533 V281.6z M426.667,284.859v-20.325c0-1.128-0.107-2.23-0.169-3.343l63.719,31.86c2.897,1.437,4.726,4.395,4.717,7.629l0,23.588 H460.8V307.2c0.001-3.232-1.825-6.188-4.717-7.633L426.667,284.859z M486.4,358.4h-59.733c-4.713,0-8.533-3.82-8.533-8.533 s3.821-8.533,8.533-8.533h68.267v8.533C494.929,354.578,491.111,358.395,486.4,358.4z"/> </g></symbol><symbol id="robotic" viewBox="0 0 471.477 471.477"><title>robotic</title><g> <g> <path d="M190.024,105.178c-17.673,0-32,14.327-32,32s14.327,32,32,32c17.673,0,32-14.327,32-32S207.697,105.178,190.024,105.178z M190.024,153.178c-8.837,0-16-7.163-16-16c0.044-8.805,7.195-15.92,16-15.92v-0.08c8.837,0,16,7.163,16,16 S198.861,153.178,190.024,153.178z"/> </g> </g><g> <g> <path d="M281.544,105.178c-17.673,0-32,14.327-32,32s14.327,32,32,32c17.673,0,32-14.327,32-32S299.217,105.178,281.544,105.178z M281.544,153.178c-8.837,0-16-7.163-16-16c0.044-8.805,7.195-15.92,16-15.92v-0.08c8.837,0,16,7.163,16,16 S290.381,153.178,281.544,153.178z"/> </g> </g><g> <g> <path d="M379.097,142.007c-3.452-18.993-18.742-33.603-37.872-36.189c-5.28-19.52-20.48-36.16-51.04-36.16h-46.4v-17.6 c14.034-4.418,21.829-19.377,17.41-33.41c-4.418-14.034-19.377-21.829-33.41-17.41c-14.034,4.418-21.829,19.377-17.41,33.41 c2.613,8.298,9.112,14.798,17.41,17.41v17.2h-46.32c-21.6,0-44.32,9.92-51.2,36.16c-24.381,3.347-41.433,25.825-38.086,50.206 c2.624,19.117,17.255,34.372,36.246,37.794l-0.08,0.4c2.4,35.12,28.48,48,53.04,48h108.8c36.56,0,51.2-24,53.04-48 C367.437,189.416,383.498,166.22,379.097,142.007z M128.104,177.818c-15.11-4.368-23.819-20.158-19.452-35.268 c2.715-9.393,10.059-16.737,19.452-19.452V177.818z M225.144,27.098c0-5.876,4.764-10.64,10.64-10.64 c5.876,0,10.64,4.764,10.64,10.64c0,5.876-4.764,10.64-10.64,10.64C229.908,37.738,225.144,32.974,225.144,27.098z M327.464,188.058c0,13.92-4.88,37.28-37.28,37.28h-108.72c-13.92,0-37.28-4.88-37.28-37.28l-0.08-64.96 c0-32.48,23.36-37.28,37.28-37.28h108.8c32.48,0,37.28,23.36,37.28,37.28V188.058z M343.144,177.258v-54.72 c12.196,3.52,20.604,14.667,20.64,27.36C363.748,162.591,355.34,173.738,343.144,177.258z"/> </g> </g><g> <g> <path d="M281.544,190.938h-91.52c-4.418,0-8,3.582-8,8s3.582,8,8,8h91.52c4.418,0,8-3.582,8-8S285.962,190.938,281.544,190.938z"/> </g> </g><g> <g> <path d="M413.784,256.778L413.784,256.778c-0.153-17.142-14.173-30.915-31.315-30.762c-14.344,0.128-26.732,10.067-29.965,24.042 l-21.36,4.16h-190.72l-21.36-4.16c-3.66-16.748-20.203-27.358-36.951-23.698c-16.748,3.66-27.358,20.203-23.698,36.951 c2.488,11.384,11.141,20.416,22.409,23.388v59.76c-13.533,3.61-22.972,15.834-23.04,29.84v14.16c0,4.418,3.582,8,8,8s8-3.582,8-8 v-14.24c0-8.306,6.734-15.04,15.04-15.04c8.306,0,15.04,6.734,15.04,15.04v14.24c0,4.418,3.582,8,8,8c4.418,0,8-3.582,8-8v-14.24 c-0.068-14.006-9.507-26.23-23.04-29.84v-59.76c10.163-2.738,18.239-10.453,21.44-20.48l13.36,2.64v98.72 c0.016,14.473,3.068,28.781,8.96,42v0.72c23.619,52.357,85.21,75.653,137.566,52.034c23.106-10.424,41.61-28.927,52.034-52.034 l0.4-0.88c5.955-13.151,9.089-27.404,9.2-41.84v-98.72l13.36-2.64c3.201,10.027,11.277,17.742,21.44,20.48v59.76 c-13.533,3.61-22.972,15.834-23.04,29.84v14.24c0,4.418,3.582,8,8,8s8-3.582,8-8v-14.24c0.008-8.306,6.748-15.034,15.054-15.026 c8.295,0.008,15.018,6.731,15.026,15.026v14.24c0,4.418,3.582,8,8,8s8-3.582,8-8v-14.24c-0.068-14.006-9.507-26.23-23.04-29.84 v-59.76C404.18,283.069,413.696,270.829,413.784,256.778z M88.824,271.818c-8.306,0-15.04-6.734-15.04-15.04 c0-8.306,6.734-15.04,15.04-15.04c8.306,0,15.04,6.734,15.04,15.04C103.864,265.084,97.13,271.818,88.824,271.818z M235.784,455.578c-30.139-0.001-58.182-15.425-74.32-40.88h148.64C293.966,440.152,265.923,455.577,235.784,455.578z M323.784,367.578c-0.039,10.668-2.018,21.24-5.84,31.2h-164.48c-3.822-9.96-5.801-20.532-5.84-31.2v-97.36h176.16V367.578z M382.827,271.816c-0.028,0-0.055,0.001-0.083,0.001l-0.16-0.24c-8.306,0-15.04-6.734-15.04-15.04 c0-8.306,6.734-15.04,15.04-15.04c8.306,0,15.04,6.734,15.04,15.04C397.757,264.843,391.132,271.683,382.827,271.816z"/> </g> </g><g> <g> <path d="M264.085,326.679c-1.465-1.322-3.367-2.056-5.341-2.061h-24l29.44-30.24c2.83-3.393,2.375-8.437-1.018-11.268 c-3.034-2.531-7.461-2.468-10.422,0.148l-42.64,43.84c-3.093,3.155-3.042,8.22,0.113,11.313c1.507,1.477,3.537,2.299,5.647,2.287 h24.64l-30.32,33.76c-2.952,3.272-2.702,8.316,0.56,11.28h0c3.272,2.952,8.316,2.702,11.28-0.56l42.64-47.2 C267.624,334.698,267.365,329.639,264.085,326.679z"/> </g> </g></symbol><symbol id="python" viewBox="-4 0 512 512"><title>python</title><path d="m504.753906 250.316406v58.050782c0 30.707031-24.890625 55.59375-55.597656 55.59375h-173.445312c-9.523438 0-17.175782 7.953124-16.730469 17.570312.445312 9.109375 8.324219 15.914062 17.207031 15.914062h41.019531c9.257813 0 16.75 7.503907 16.75 16.75v41.855469c0 30.90625-25.054687 55.949219-55.945312 55.949219h-48.660157c-30.902343 0-55.957031-25.042969-55.957031-55.949219v-147.457031h-117.796875c-30.707031 0-55.597656-24.890625-55.597656-55.597656v-49.371094c0-30.707031 24.890625-55.597656 55.597656-55.597656h117.796875v-.007813h50.769531c9.503907 0 17.164063-7.921875 16.730469-17.539062-.425781-9.007813-8.179687-15.953125-17.207031-15.953125h-33.542969c-9.246093 0-16.75-7.496094-16.75-16.742188v-41.835937c0-30.90625 25.054688-55.949219 55.957031-55.949219h48.660157c30.839843 0 55.855469 24.949219 55.945312 55.792969v138.925781h115.199219c30.707031 0 55.597656 24.902344 55.597656 55.597656zm0 0" fill="#ffda44"/><path d="m504.753906 250.316406v58.050782c0 30.707031-24.890625 55.59375-55.597656 55.59375h-173.445312c-9.523438 0-17.175782 7.953124-16.730469 17.570312.445312 9.109375 8.324219 15.914062 17.207031 15.914062h41.019531c9.257813 0 16.75 7.503907 16.75 16.75v41.855469c0 30.90625-25.054687 55.949219-55.945312 55.949219h-24.332031v-512h24.332031c30.839843 0 55.855469 24.949219 55.945312 55.792969v138.925781h115.199219c30.707031 0 55.597656 24.902344 55.597656 55.597656zm0 0" fill="#ffcd00"/><path d="m318.261719 437.164062c0 9.246094-7.492188 16.742188-16.738281 16.742188-9.246094 0-16.742188-7.496094-16.742188-16.742188 0-9.246093 7.496094-16.738281 16.742188-16.738281 9.246093 0 16.738281 7.492188 16.738281 16.738281zm0 0" fill="#4895ff"/><path d="m318.261719 437.164062c0 9.246094-7.492188 16.742188-16.738281 16.742188v-33.480469c9.246093 0 16.738281 7.492188 16.738281 16.738281zm0 0" fill="#2682ff"/><path d="m333.957031 55.792969v138.925781 22.953125c0 18.503906-14.988281 33.492187-33.492187 33.492187h-110.320313c-9.246093 0-16.75 7.507813-16.75 16.742188v40.6875h-117.796875c-30.707031 0-55.597656-24.898438-55.597656-55.597656v-49.371094c0-30.699219 24.890625-55.597656 55.597656-55.597656h117.796875v-.007813h50.769531c9.503907 0 17.164063-7.921875 16.730469-17.539062-.425781-9.007813-8.179687-15.953125-17.207031-15.953125h-33.542969c-9.246093 0-16.75-7.496094-16.75-16.742188v-41.835937c0-30.90625 25.054688-55.949219 55.957031-55.949219h48.660157c30.839843 0 55.855469 24.949219 55.945312 55.792969zm0 0" fill="#4895ff"/><path d="m333.957031 55.792969v138.925781 22.953125c0 18.503906-14.988281 33.492187-33.492187 33.492187h-46.785156v-251.164062h24.332031c30.839843 0 55.855469 24.949219 55.945312 55.792969zm0 0" fill="#2682ff"/><path d="m226.433594 78.695312c0 9.242188-7.496094 16.738282-16.742188 16.738282-9.257812 0-16.75-7.496094-16.75-16.738282 0-9.246093 7.492188-16.753906 16.75-16.753906 9.246094 0 16.742188 7.507813 16.742188 16.753906zm0 0" fill="#ffda44"/><path d="m226.433594 78.695312c0 9.242188-7.496094 16.738282-16.742188 16.738282v-33.492188c9.246094 0 16.742188 7.507813 16.742188 16.753906zm0 0" fill="#ffcd00"/></symbol><symbol id="python-snake" viewBox="0 0 327.691 327.691"><title>python-snake</title><path d="M223.565,51.111C223.565,22.883,200.683,0,172.446,0h-30.667c-28.236,0-51.113,22.883-51.113,51.111v17.953h65.933v14.456 l-96.642,0.041c-28.229,0-51.111,22.883-51.111,51.12v30.666c0,28.229,22.883,51.112,51.111,51.112h29.344v-59.006h134.285 L223.565,51.111z M117.213,53.661c-4.112,0-7.444-3.332-7.444-7.438c0-4.11,3.332-7.444,7.444-7.444 c4.105,0,7.438,3.334,7.438,7.444C124.65,50.329,121.318,53.661,117.213,53.661z"/><path d="M267.734,111.231h-29.344v59.006H104.105l0.021,106.343c0,28.228,22.883,51.111,51.119,51.111h30.667 c28.236,0,51.113-22.883,51.113-51.111v-17.953h-65.933v-14.456l96.642-0.041c28.228,0,51.111-22.883,51.111-51.119v-30.667 C318.846,134.114,295.963,111.231,267.734,111.231z M210.479,274.03c4.113,0,7.444,3.332,7.444,7.438 c0,4.11-3.331,7.444-7.444,7.444c-4.105,0-7.438-3.334-7.438-7.444C203.041,277.362,206.374,274.03,210.479,274.03z"/></symbol><symbol id="plane" viewBox="0 0 512 512"><title>plane</title><path d="M497.535,14.465c-19.569-19.568-51.395-19.241-70.557,0.726L322.092,124.488L66.131,39.781L12.4,93.513l213.352,131.365 L117.796,337.372l-69.231-11.366L0,374.571l101.78,35.649L137.429,512l48.565-48.565l-11.366-69.231l112.494-107.955 L418.487,499.6l53.732-53.732l-84.706-255.961L496.808,85.022C516.776,65.86,517.103,34.034,497.535,14.465z"/></symbol></svg>